<?xml version="1.0" standalone="no"?>
<!DOCTYPE svg PUBLIC "-//W3C//DTD SVG 20010904//EN"
 "http://www.w3.org/TR/2001/REC-SVG-20010904/DTD/svg10.dtd">
<svg version="1.0" xmlns="http://www.w3.org/2000/svg"
 width="500.000000pt" height="500.000000pt" viewBox="0 0 500.000000 500.000000"
 preserveAspectRatio="xMidYMid meet">
<metadata>
Created by potrace 1.14, written by Peter Selinger 2001-2017
</metadata>
<g transform="translate(0.000000,500.000000) scale(0.100000,-0.100000)"
fill="#000000" stroke="none">
<path d="M1050 4900 c0 -44 20 -85 79 -163 28 -37 51 -70 51 -72 0 -3 -15 2
-32 11 -33 16 -88 86 -107 137 -13 33 -36 37 -25 5 21 -67 68 -149 93 -162 15
-8 33 -22 40 -30 11 -14 11 -16 -5 -16 -11 0 -32 7 -48 15 -38 20 -46 19 -46
-8 0 -28 28 -46 85 -53 51 -8 87 0 110 22 14 15 19 14 57 -12 23 -16 65 -45
93 -64 138 -93 349 -308 456 -465 20 -29 46 -66 58 -81 58 -75 197 -296 227
-361 l33 -74 -30 18 c-17 10 -41 29 -53 43 -64 75 -345 267 -427 293 -36 12
-93 18 -169 20 -112 1 -117 1 -185 -32 -55 -26 -90 -53 -162 -128 -51 -52 -93
-99 -93 -104 0 -6 -18 -36 -40 -67 -41 -59 -64 -130 -49 -153 5 -8 9 -35 9
-61 0 -26 5 -67 10 -90 77 -314 79 -326 67 -375 -7 -27 -16 -48 -22 -48 -9 0
-140 135 -247 253 -42 46 -142 204 -153 242 -13 43 -77 194 -88 208 -14 18
-13 97 3 164 12 47 12 63 0 97 -7 23 -17 41 -21 41 -5 0 -20 19 -35 41 -37 59
-51 37 -20 -32 25 -56 29 -73 27 -123 l-1 -29 -25 23 c-14 13 -25 28 -25 34 0
6 -9 28 -20 49 -18 33 -25 63 -47 205 -3 17 -9 32 -14 32 -5 0 -8 -52 -6 -115
1 -63 -1 -115 -5 -115 -4 0 -17 19 -30 43 -15 30 -23 66 -26 125 -6 114 -32
104 -32 -13 0 -68 16 -119 56 -182 34 -53 41 -73 26 -73 -22 0 -132 178 -132
215 0 8 -4 15 -10 15 -25 0 8 -137 44 -184 50 -65 157 -163 193 -177 15 -6 40
-46 83 -136 80 -168 129 -263 149 -289 9 -11 38 -49 64 -84 26 -35 94 -112
150 -172 56 -59 105 -114 109 -122 5 -9 -6 -41 -27 -82 -35 -71 -117 -260
-141 -327 -17 -46 -66 -152 -140 -301 -30 -60 -54 -121 -54 -135 0 -14 -11
-50 -25 -79 -29 -62 -31 -78 -11 -89 7 -4 21 -23 30 -41 10 -18 24 -32 35 -32
28 0 100 -60 168 -141 34 -41 85 -102 115 -137 29 -35 73 -88 98 -117 25 -30
90 -105 145 -167 55 -62 112 -131 126 -153 114 -177 132 -217 123 -268 -3 -22
-46 -146 -94 -275 -74 -195 -87 -239 -79 -261 17 -46 32 -71 44 -71 7 0 20 -9
30 -20 28 -31 79 -26 141 15 29 19 55 35 59 35 4 0 19 8 33 19 15 10 70 41
122 68 118 62 158 84 294 166 l108 65 54 -44 c87 -70 106 -77 198 -72 85 5
121 18 208 77 62 42 82 68 112 143 30 76 33 137 10 203 -15 45 -15 46 8 66 13
11 48 32 79 48 31 15 72 40 90 54 42 31 128 80 197 113 29 13 75 41 102 62 27
20 79 55 116 77 36 22 82 52 101 68 20 15 43 27 52 27 9 0 47 -25 85 -56 59
-48 77 -57 131 -66 103 -17 165 -4 235 49 72 53 131 139 141 203 4 29 1 64 -8
100 -8 30 -16 61 -17 68 -2 17 192 130 460 267 l72 37 11 56 c38 201 69 319
97 379 8 18 22 70 30 115 16 89 17 98 34 227 6 46 27 149 46 230 89 379 90
388 16 479 -77 96 -59 93 -264 43 -33 -8 -43 -5 -87 23 -27 17 -96 58 -152 91
-56 33 -114 67 -128 75 -48 28 -155 103 -217 152 -34 26 -66 48 -72 48 -6 0
-17 8 -24 19 -7 10 -26 25 -43 34 -16 9 -49 34 -73 57 -24 22 -47 40 -52 40
-5 0 -13 6 -17 13 -12 18 -100 89 -153 122 -25 16 -58 41 -75 55 -40 36 -102
70 -125 70 -32 0 -490 -248 -490 -265 0 -24 54 -141 94 -205 29 -47 59 -102
66 -122 6 -21 16 -38 21 -38 23 0 -5 -71 -63 -157 -15 -23 -28 -46 -28 -52 0
-32 -255 -246 -285 -239 -7 2 -75 64 -152 138 l-139 135 -77 156 c-72 147
-188 334 -277 444 -22 28 -61 82 -86 120 -64 96 -107 146 -266 306 -100 100
-155 147 -200 171 -41 22 -62 39 -60 49 1 9 -20 41 -48 73 -62 71 -108 138
-122 177 -12 35 -34 34 -30 -2 5 -35 50 -126 82 -163 61 -70 46 -76 -20 -6
-76 81 -120 146 -120 179 0 12 -4 21 -10 21 -5 0 -10 -14 -10 -30z m536 -1089
c85 -22 217 -89 264 -134 42 -40 143 -116 187 -142 34 -20 227 -214 308 -311
27 -32 65 -74 85 -93 57 -55 90 -102 90 -127 0 -15 27 -51 81 -106 44 -46 92
-105 106 -133 14 -27 31 -57 38 -65 42 -48 92 -170 148 -360 34 -115 39 -140
37 -207 -1 -32 -2 -69 -2 -83 0 -54 -100 -159 -224 -234 -53 -32 -64 -35 -88
-26 -15 5 -31 8 -36 5 -5 -3 -44 9 -87 26 -43 17 -100 40 -128 51 -27 11 -58
28 -67 38 -10 11 -53 46 -96 78 -146 111 -516 516 -608 664 -14 24 -34 50 -44
58 -10 8 -30 37 -44 64 -14 27 -30 54 -35 60 -5 6 -16 31 -24 56 -9 25 -29 71
-45 102 -16 31 -33 69 -36 85 -4 15 -18 52 -32 81 -32 69 -59 157 -78 261 -28
149 -20 208 42 301 38 57 66 75 142 96 60 17 64 17 146 -5z m-438 -203 c-13
-12 -40 -43 -60 -68 -51 -61 -48 -38 3 30 63 85 73 95 77 77 2 -8 -7 -26 -20
-39z m-10 -110 c-18 -24 -44 -60 -58 -81 -14 -20 -28 -37 -32 -37 -17 0 -6 30
25 68 17 22 45 57 61 78 17 21 31 33 33 27 2 -6 -11 -31 -29 -55z m40 -61 c-1
-1 -19 -15 -38 -32 -20 -17 -28 -21 -20 -10 30 43 55 66 58 55 2 -6 2 -12 0
-13z m22 -96 c5 -17 5 -31 0 -31 -4 0 -32 -28 -60 -62 -29 -35 -56 -64 -61
-66 -4 -2 -11 8 -15 22 -4 17 1 35 17 58 26 39 101 119 106 114 2 -2 8 -17 13
-35z m-126 -16 c-9 -14 -19 -23 -22 -20 -5 4 26 45 35 45 2 0 -4 -11 -13 -25z
m3656 -41 c16 -40 12 -82 -15 -179 -30 -105 -119 -520 -146 -680 -10 -60 -32
-150 -49 -200 -17 -49 -35 -127 -40 -172 -5 -45 -15 -94 -23 -109 l-14 -27
-13 39 c-7 21 -17 45 -23 52 -6 8 -5 17 3 27 9 11 9 19 2 28 -9 10 -3 40 20
118 26 89 76 274 131 489 18 68 44 191 53 245 4 22 11 48 15 57 10 19 45 179
61 276 11 66 23 78 38 36z m-3512 -123 c-13 -14 -27 -28 -31 -29 -4 -2 -19
-22 -33 -43 -26 -42 -44 -50 -44 -21 0 10 -5 23 -11 29 -18 18 -1 51 59 109
l56 55 13 -37 c12 -35 11 -40 -9 -63z m65 -84 l15 -44 -52 -71 c-28 -39 -53
-72 -56 -72 -3 0 -18 25 -33 55 -26 53 -26 55 -7 65 11 6 20 16 20 23 0 18 79
99 90 92 4 -3 15 -24 23 -48z m62 -146 l18 -40 -48 -55 c-26 -31 -51 -56 -55
-56 -4 0 -15 15 -25 33 -15 28 -16 37 -5 58 20 37 81 109 89 104 4 -2 16 -22
26 -44z m75 -128 c17 -26 30 -52 30 -57 0 -6 -13 -20 -29 -30 -16 -11 -41 -38
-55 -60 -14 -22 -26 -35 -26 -30 0 6 -14 32 -31 58 l-32 47 24 27 c45 51 83
92 86 92 2 0 17 -21 33 -47z m100 -168 c0 -5 -16 -28 -35 -50 -20 -22 -40 -45
-45 -52 -15 -18 -36 -6 -59 33 l-20 34 51 56 52 55 28 -33 c15 -18 28 -37 28
-43z m73 -104 l30 -43 -25 -25 -25 -25 -54 27 c-30 15 -56 29 -58 31 -9 8 74
84 88 82 9 -2 28 -23 44 -47z m99 -125 c25 -42 26 -45 9 -60 -17 -16 -18 -15
-14 8 5 24 -19 58 -48 68 -15 5 -3 28 14 28 7 0 24 -20 39 -44z m-122 -66 c6
-11 25 -26 43 -34 27 -12 29 -15 14 -21 -13 -6 -28 1 -53 26 -19 18 -34 37
-34 41 0 16 19 8 30 -12z m260 -102 c0 -15 -53 -68 -68 -68 -22 0 -112 57
-112 70 0 5 23 28 51 50 l52 41 38 -43 c21 -24 39 -46 39 -50z m120 -132 c0
-6 -18 -28 -41 -49 l-41 -39 -16 24 c-9 12 -25 38 -35 57 l-18 34 32 33 32 33
43 -41 c24 -23 44 -47 44 -52z m96 -78 c24 -18 44 -35 44 -38 0 -8 -92 -100
-100 -100 -4 0 -26 21 -49 48 l-42 47 43 37 c24 21 47 38 52 38 5 0 28 -15 52
-32z m2333 -82 c15 -59 16 -55 -26 -72 -41 -18 -355 -188 -393 -214 -14 -9
-38 -23 -55 -32 -16 -8 -39 -19 -50 -26 -11 -6 -54 -27 -95 -46 -168 -79 -325
-170 -503 -290 -223 -151 -276 -184 -347 -217 -36 -17 -72 -36 -80 -44 -8 -7
-37 -25 -65 -40 -71 -37 -135 -78 -430 -271 -59 -39 -93 -58 -216 -123 -35
-18 -109 -65 -164 -104 -55 -38 -156 -101 -225 -139 -69 -38 -132 -75 -140
-82 -8 -8 -49 -30 -90 -50 -65 -32 -76 -35 -86 -21 -6 8 -21 15 -32 15 -11 0
-24 5 -27 10 -3 6 -2 10 4 10 5 0 16 6 23 12 7 7 35 29 61 48 26 19 69 52 95
73 26 20 50 37 55 37 4 0 53 30 108 68 55 37 113 74 130 83 17 8 34 20 37 25
10 15 88 59 142 80 25 10 63 31 84 46 21 15 43 28 47 28 5 0 41 21 80 48 40
26 94 59 122 74 28 15 66 38 86 52 20 13 56 35 81 48 25 14 87 51 138 82 51
31 95 56 97 56 3 0 36 20 74 45 39 24 96 58 128 75 32 17 72 41 90 53 112 77
248 159 385 231 59 31 110 61 113 66 3 5 36 25 73 43 70 36 102 53 192 107 74
44 301 170 370 205 30 15 83 43 118 61 35 19 67 34 72 34 4 0 13 -20 19 -44z
m-2188 -32 l48 -35 -37 -32 c-20 -17 -44 -37 -53 -44 -13 -11 -23 -7 -67 25
l-51 39 32 23 c18 13 38 32 45 42 18 25 27 23 83 -18z m129 -83 l24 -19 -39
-45 c-22 -25 -47 -45 -55 -46 -8 0 -28 10 -43 23 l-29 23 48 41 c53 47 59 49
94 23z m120 -59 c0 -19 -77 -81 -105 -84 -46 -5 -38 26 15 61 43 28 90 40 90
23z m65 -32 c-3 -5 -11 -10 -16 -10 -6 0 -7 5 -4 10 3 6 11 10 16 10 6 0 7 -4
4 -10z"/>
<path d="M1545 3646 c-20 -20 -23 -29 -16 -54 27 -92 93 -128 141 -77 21 23
22 28 12 64 -8 26 -24 47 -50 65 -47 32 -57 32 -87 2z"/>
<path d="M1383 3522 c-24 -18 -43 -68 -43 -111 0 -36 81 -111 120 -111 51 0
83 76 60 145 -14 42 -67 95 -95 95 -11 0 -30 -8 -42 -18z"/>
<path d="M1790 3504 c-139 -97 -201 -153 -252 -229 -60 -88 -88 -150 -88 -194
0 -37 41 -73 128 -114 57 -26 69 -29 125 -23 75 9 136 42 195 105 72 77 89
129 72 209 -11 48 -21 72 -68 172 -25 53 -59 101 -71 99 -3 0 -22 -12 -41 -25z
m-29 -147 c-94 -96 -206 -247 -217 -292 l-7 -27 -25 25 c-23 24 -24 28 -11 58
27 65 127 206 170 238 24 19 51 41 59 50 33 35 83 60 102 50 16 -9 8 -21 -71
-102z"/>
<path d="M1922 3031 c-42 -69 -45 -112 -8 -150 38 -40 16 -50 -35 -16 -23 14
-47 24 -54 21 -15 -5 -75 -125 -75 -150 0 -9 18 -27 41 -42 30 -19 39 -29 33
-42 -22 -53 -31 -88 -25 -99 16 -29 113 -123 127 -123 8 0 26 7 39 16 30 19
59 13 100 -20 17 -14 71 -56 121 -95 70 -54 100 -84 129 -133 34 -58 36 -65
25 -93 -27 -68 -26 -73 34 -131 31 -29 66 -54 77 -54 11 0 36 11 56 25 39 26
53 24 87 -14 11 -12 25 -21 32 -21 29 0 65 25 85 58 28 48 19 93 -27 139 -20
19 -33 37 -30 40 5 5 14 0 73 -43 30 -21 55 -11 88 36 20 29 25 45 19 62 -4
13 -8 34 -8 48 -1 17 -10 29 -32 40 -17 8 -42 26 -56 40 -25 24 -26 31 -30
145 -3 114 -5 122 -33 161 -34 47 -97 81 -180 98 l-59 12 -11 54 c-17 81 -37
119 -91 177 -45 47 -54 52 -107 58 -41 5 -68 3 -95 -7 -36 -14 -39 -13 -79 14
-23 16 -55 31 -71 34 -25 5 -31 1 -60 -45z m121 -47 l47 -36 40 16 c82 33 144
16 187 -52 44 -68 66 -144 59 -197 -6 -38 -5 -44 14 -50 12 -4 35 -1 51 5 17
7 50 10 77 7 40 -4 53 -12 89 -51 52 -58 70 -129 54 -207 -14 -64 -14 -89 0
-89 7 0 33 -20 59 -44 44 -42 47 -46 33 -65 -18 -27 -29 -26 -69 4 -18 14 -36
25 -40 25 -12 0 -84 -80 -84 -94 0 -6 25 -35 55 -64 50 -46 54 -54 43 -72 -7
-11 -15 -20 -19 -20 -3 0 -24 16 -46 35 -23 19 -47 35 -54 35 -7 0 -30 -16
-50 -36 l-37 -36 -32 32 -32 31 20 58 c16 51 17 63 5 85 -8 14 -17 26 -22 26
-5 0 -51 41 -102 90 -176 170 -194 187 -219 203 -29 20 -73 22 -120 5 -31 -10
-35 -9 -62 21 -33 37 -35 50 -8 84 29 37 25 52 -24 98 -41 37 -44 43 -34 65
14 31 25 30 67 -6 20 -17 39 -26 46 -22 7 4 33 31 59 61 44 52 45 55 28 74 -9
10 -29 25 -44 33 -16 8 -28 19 -28 25 0 13 30 59 40 59 3 0 28 -16 53 -36z"/>
<path d="M2200 2772 c-14 -9 -48 -39 -75 -65 l-50 -49 35 -30 c19 -17 51 -46
72 -64 20 -19 41 -34 47 -34 21 0 61 68 72 121 9 45 8 62 -5 92 -8 20 -22 37
-30 37 -8 0 -20 2 -28 5 -7 3 -24 -3 -38 -13z m70 -82 c0 -21 -33 -90 -43 -90
-16 0 -47 31 -47 47 0 30 25 53 57 53 18 0 33 -4 33 -10z"/>
<path d="M2463 2519 c-36 -10 -99 -69 -109 -103 -5 -16 5 -31 51 -73 89 -79
100 -78 158 19 40 67 40 108 -2 137 -36 26 -61 31 -98 20z m64 -87 c9 -6 5
-19 -13 -50 l-25 -42 -29 20 c-35 25 -30 45 14 65 38 16 38 16 53 7z"/>
</g>
</svg>
